<?xml version="1.0" encoding="utf-8"?>
<!-- Generator: Adobe Illustrator 27.5.0, SVG Export Plug-In . SVG Version: 6.00 Build 0)  -->
<svg version="1.1" id="Layer_1" xmlns="http://www.w3.org/2000/svg" xmlns:xlink="http://www.w3.org/1999/xlink" x="0px" y="0px"
	 viewBox="0 0 258.431 198.274" style="enable-background:new 0 0 258.431 198.274;" xml:space="preserve">
<g>
	<g>
		<path style="fill:#FFFFFF;" d="M253.652,28.549c-1.206-7.709-5.402-12.84-9.759-17.237c-2.798-2.82-6.136-4.25-9.924-4.25
			c-1.771,0-3.689,0.303-6.032,0.949c-5.72,1.575-9.505,3.806-11.564,6.804c-1.402,2.025-1.863,4.506-1.269,6.8
			c0.971,3.765,0.913,6.281-0.232,9.983c-1.059,3.445-2.754,6.751-4.431,9.813c-0.086,0.156-0.171,0.32-0.257,0.493
			c-4.029,0.546-7.725,1.638-11.229,3.311c-8.417,4.022-15.495,10.69-22.024,17.176c-2.944,2.926-5.702,5.995-8.37,8.964
			c-3.615,4.024-7.03,7.824-10.876,11.307c-8.324,7.539-16.543,14.055-24.43,19.367c-18.855,12.698-38.742,17.761-58.713,14.929
			c-8.244-1.171-15.65-4.243-23.489-7.495c-2.098-0.87-4.208-1.746-6.351-2.593c-2.738-1.081-5.808-1.652-8.879-1.652
			c-3.135,0-6.106,0.591-8.715,1.723c-1.761-0.474-3.654-0.878-5.592-0.878c-4.176,0-7.665,1.925-10.093,5.569
			c-2.304,3.463-4.78,8.476-3.486,12.684c0.619,2.02,1.289,3.702,3.763,5.431c2.021,1.41,2.273,1.995,2.664,6.23
			c0.007,0.094,0.017,0.186,0.028,0.27c0.023,0.174,0.056,0.347,0.098,0.519c2.443,9.936,6.335,18.717,11.565,26.098
			c2.378,3.358,5.084,6.713,8.517,10.56c0.162,0.182,0.339,0.352,0.527,0.508c15.47,12.797,34.862,17.979,48.405,20.073
			c5.57,0.862,11.312,1.299,17.061,1.299h0.001c21.37,0,43.3-5.808,65.174-17.261c26.423-13.836,49-33.148,63.573-54.38
			c7.715-11.236,12.704-23.557,14.829-36.623c1.068-6.567,1.116-13.87,0.133-20.038c-1.047-6.571-3.173-11.895-6.34-15.894
			c2.531-2.966,4.92-5.4,7.812-6.068c1.358-0.315,3.632-0.845,5.586-2.562c4.355-3.831,3.251-9.251,2.593-12.49
			C253.823,29.485,253.723,29.002,253.652,28.549z"/>
		<path style="fill:#F1F1F1;" d="M253.316,28.177c-1.206-7.709-5.402-12.839-9.759-17.237c-2.798-2.82-6.136-4.249-9.925-4.249
			c-1.77,0-3.688,0.302-6.032,0.949c-5.72,1.574-9.505,3.804-11.563,6.803c-1.402,2.024-1.863,4.506-1.27,6.801
			c0.972,3.765,0.913,6.28-0.231,9.983c-1.058,3.444-2.755,6.751-4.432,9.813c-0.085,0.156-0.169,0.32-0.256,0.494
			c-4.029,0.545-7.726,1.638-11.229,3.31c-8.417,4.022-15.495,10.69-22.024,17.177c-2.943,2.926-5.703,5.994-8.37,8.963
			c-3.616,4.023-7.031,7.825-10.877,11.307c-8.323,7.54-16.542,14.056-24.429,19.367c-18.855,12.699-38.742,17.761-58.714,14.93
			c-8.243-1.172-15.649-4.244-23.488-7.496c-2.098-0.869-4.209-1.745-6.353-2.593c-2.737-1.081-5.807-1.652-8.878-1.652
			c-3.135,0-6.107,0.592-8.714,1.723c-1.763-0.473-3.656-0.877-5.593-0.877c-4.176,0-7.666,1.925-10.094,5.567
			c-2.304,3.465-4.778,8.478-3.485,12.686c0.619,2.019,1.289,3.701,3.763,5.431c2.02,1.409,2.295,1.991,2.663,6.231
			c0.009,0.093,0.018,0.184,0.028,0.269c0.024,0.173,0.057,0.347,0.098,0.517c2.444,9.938,6.336,18.719,11.566,26.1
			c2.378,3.356,5.084,6.712,8.516,10.558c0.163,0.184,0.339,0.353,0.527,0.508c15.471,12.798,34.862,17.979,48.405,20.075
			c5.571,0.86,11.312,1.297,17.062,1.297h0.001c21.369,0,43.3-5.807,65.174-17.259c26.422-13.836,48.999-33.149,63.573-54.381
			c7.715-11.236,12.703-23.558,14.829-36.623c1.067-6.566,1.116-13.87,0.133-20.038c-1.046-6.571-3.174-11.895-6.339-15.892
			c2.53-2.967,4.919-5.4,7.81-6.07c1.359-0.316,3.632-0.844,5.586-2.561c4.354-3.83,3.251-9.251,2.593-12.489
			C253.486,29.114,253.386,28.63,253.316,28.177z"/>
		<path style="fill:#E2E2E2;" d="M252.98,27.805c-1.206-7.709-5.402-12.838-9.759-17.237c-2.799-2.82-6.137-4.248-9.925-4.248
			c-1.771,0-3.688,0.302-6.033,0.948c-5.72,1.575-9.498,3.809-11.563,6.804c-1.398,2.028-1.863,4.507-1.27,6.8
			c0.971,3.766,0.913,6.282-0.23,9.983c-1.061,3.446-2.755,6.751-4.432,9.813c-0.085,0.156-0.172,0.32-0.257,0.492
			c-4.029,0.547-7.725,1.639-11.228,3.311c-8.418,4.023-15.496,10.691-22.026,17.177c-2.942,2.926-5.701,5.995-8.369,8.964
			c-3.615,4.024-7.031,7.824-10.876,11.307c-8.325,7.54-16.542,14.054-24.429,19.367c-18.855,12.698-38.743,17.762-58.714,14.928
			c-8.245-1.171-15.649-4.241-23.489-7.493c-2.098-0.872-4.208-1.747-6.352-2.594c-2.737-1.082-5.809-1.652-8.879-1.652
			c-3.135,0-6.105,0.59-8.715,1.723c-1.761-0.474-3.654-0.878-5.592-0.878c-4.176,0-7.665,1.924-10.093,5.569
			c-2.305,3.462-4.78,8.476-3.486,12.683c0.619,2.02,1.29,3.703,3.763,5.432c2.02,1.41,2.317,1.991,2.664,6.231
			c0.008,0.093,0.016,0.184,0.027,0.269c0.023,0.175,0.057,0.348,0.099,0.519c2.442,9.936,6.335,18.716,11.566,26.098
			c2.376,3.358,5.084,6.714,8.516,10.56c0.163,0.182,0.339,0.352,0.527,0.507c15.469,12.799,34.861,17.979,48.405,20.073
			c5.571,0.863,11.312,1.299,17.062,1.299h0.001c21.368,0,43.299-5.807,65.173-17.259c26.423-13.836,49-33.149,63.573-54.381
			c7.715-11.236,12.704-23.558,14.83-36.623c1.067-6.566,1.115-13.871,0.132-20.038c-1.047-6.571-3.173-11.896-6.341-15.892
			c2.532-2.967,4.921-5.401,7.813-6.069c1.357-0.316,3.632-0.844,5.586-2.563c4.355-3.829,3.251-9.25,2.593-12.488
			C253.149,28.743,253.049,28.259,252.98,27.805z"/>
		<path style="fill:#D4D4D4;" d="M252.642,27.434c-1.207-7.709-5.402-12.839-9.759-17.237c-2.798-2.82-6.136-4.249-9.924-4.249
			c-1.77,0-3.689,0.302-6.033,0.948c-5.719,1.576-9.504,3.806-11.564,6.804c-1.401,2.025-1.862,4.506-1.269,6.801
			c0.971,3.764,0.912,6.281-0.232,9.982c-1.058,3.445-2.753,6.752-4.43,9.815c-0.086,0.156-0.171,0.32-0.257,0.492
			c-4.029,0.547-7.725,1.638-11.229,3.311c-8.417,4.023-15.495,10.691-22.024,17.176c-2.944,2.927-5.702,5.995-8.37,8.964
			c-3.615,4.025-7.03,7.825-10.876,11.307c-8.324,7.54-16.543,14.055-24.43,19.367c-18.855,12.699-38.742,17.761-58.713,14.929
			c-8.244-1.171-15.65-4.242-23.489-7.495c-2.098-0.87-4.208-1.745-6.352-2.592c-2.739-1.082-5.808-1.653-8.879-1.653
			c-3.136,0-6.106,0.591-8.715,1.723c-1.761-0.474-3.654-0.878-5.592-0.878c-4.176,0-7.666,1.925-10.093,5.569
			c-2.304,3.463-4.78,8.476-3.486,12.684c0.619,2.019,1.289,3.702,3.763,5.431c2.021,1.41,2.295,1.993,2.664,6.231
			c0.008,0.093,0.017,0.185,0.028,0.269c0.022,0.175,0.056,0.347,0.098,0.519c2.442,9.936,6.335,18.717,11.566,26.098
			c2.378,3.358,5.084,6.714,8.517,10.56c0.162,0.182,0.339,0.353,0.527,0.508c15.469,12.798,34.862,17.979,48.405,20.073
			c5.57,0.862,11.312,1.299,17.061,1.299h0.001c21.37,0,43.3-5.808,65.174-17.26c26.423-13.836,49-33.149,63.573-54.381
			c7.715-11.235,12.704-23.557,14.829-36.622c1.068-6.567,1.116-13.871,0.132-20.039c-1.046-6.571-3.172-11.895-6.339-15.893
			c2.531-2.966,4.92-5.4,7.812-6.069c1.358-0.316,3.632-0.844,5.586-2.562c4.355-3.831,3.251-9.251,2.593-12.489
			C252.813,28.37,252.712,27.888,252.642,27.434z"/>
		<path style="fill:#C5C5C5;" d="M252.305,27.063c-1.205-7.709-5.401-12.84-9.759-17.237c-2.797-2.82-6.136-4.25-9.924-4.25
			c-1.771,0-3.689,0.303-6.033,0.949c-5.72,1.575-9.504,3.806-11.563,6.804c-1.402,2.025-1.864,4.506-1.27,6.8
			c0.971,3.765,0.913,6.281-0.23,9.983c-1.059,3.445-2.755,6.751-4.432,9.814c-0.086,0.156-0.17,0.32-0.257,0.493
			c-4.028,0.547-7.725,1.638-11.229,3.311c-8.416,4.023-15.494,10.69-22.024,17.176c-2.943,2.926-5.703,5.995-8.37,8.964
			c-3.616,4.024-7.031,7.824-10.877,11.307c-8.323,7.539-16.542,14.055-24.428,19.367c-18.855,12.699-38.743,17.761-58.715,14.929
			c-8.244-1.171-15.649-4.243-23.488-7.495c-2.098-0.87-4.208-1.745-6.352-2.593c-2.737-1.081-5.809-1.652-8.879-1.652
			c-3.135,0-6.106,0.591-8.714,1.723c-1.762-0.474-3.656-0.878-5.592-0.878c-4.177,0-7.666,1.925-10.095,5.569
			c-2.304,3.463-4.778,8.476-3.485,12.684c0.619,2.02,1.289,3.702,3.763,5.431c2.021,1.41,2.295,1.993,2.663,6.231
			c0.009,0.093,0.017,0.185,0.028,0.269c0.023,0.175,0.058,0.347,0.099,0.518c2.443,9.936,6.336,18.717,11.566,26.098
			c2.378,3.358,5.083,6.713,8.515,10.56c0.163,0.182,0.34,0.352,0.528,0.508c15.47,12.797,34.861,17.979,48.405,20.073
			c5.571,0.862,11.31,1.299,17.062,1.299l0,0c21.369,0,43.3-5.808,65.174-17.261c26.422-13.835,49-33.148,63.573-54.38
			c7.715-11.236,12.704-23.557,14.83-36.623c1.066-6.567,1.115-13.87,0.132-20.038c-1.047-6.571-3.173-11.895-6.34-15.894
			c2.531-2.966,4.92-5.4,7.811-6.068c1.358-0.316,3.632-0.845,5.587-2.562c4.354-3.831,3.251-9.251,2.592-12.49
			C252.476,27.999,252.375,27.516,252.305,27.063z"/>
		<path style="fill:#B7B7B7;" d="M251.969,26.691c-1.206-7.709-5.402-12.84-9.759-17.238c-2.798-2.819-6.137-4.249-9.925-4.249
			c-1.771,0-3.688,0.302-6.032,0.949c-5.72,1.575-9.505,3.805-11.564,6.804c-1.401,2.024-1.863,4.506-1.27,6.8
			c0.973,3.765,0.913,6.281-0.23,9.983c-1.06,3.445-2.755,6.751-4.432,9.813c-0.085,0.156-0.171,0.32-0.257,0.493
			c-4.028,0.546-7.725,1.637-11.227,3.31c-8.418,4.023-15.495,10.69-22.025,17.176c-2.943,2.926-5.701,5.995-8.369,8.964
			c-3.616,4.023-7.031,7.824-10.877,11.307c-8.324,7.539-16.542,14.055-24.429,19.366c-18.854,12.699-38.743,17.762-58.714,14.93
			c-8.243-1.171-15.649-4.243-23.489-7.495c-2.098-0.87-4.207-1.746-6.352-2.593c-2.737-1.082-5.807-1.653-8.879-1.653
			c-3.134,0-6.105,0.592-8.715,1.724c-1.761-0.474-3.653-0.879-5.592-0.879c-4.175,0-7.665,1.926-10.093,5.569
			c-2.304,3.464-4.78,8.477-3.485,12.685c0.619,2.02,1.289,3.701,3.763,5.431c2.02,1.41,2.295,1.993,2.663,6.23
			c0.009,0.093,0.017,0.185,0.028,0.27c0.023,0.174,0.056,0.346,0.098,0.518c2.443,9.936,6.335,18.718,11.566,26.099
			c2.377,3.358,5.084,6.713,8.516,10.559c0.163,0.183,0.339,0.352,0.527,0.508c15.47,12.798,34.862,17.98,48.405,20.074
			c5.571,0.861,11.312,1.299,17.062,1.299h0.001c21.369,0,43.3-5.809,65.174-17.261c26.422-13.837,48.999-33.148,63.572-54.381
			c7.715-11.235,12.704-23.557,14.83-36.622c1.068-6.568,1.115-13.871,0.133-20.038c-1.046-6.571-3.174-11.895-6.34-15.894
			c2.53-2.966,4.92-5.4,7.811-6.069c1.359-0.315,3.633-0.844,5.586-2.562c4.355-3.831,3.251-9.251,2.593-12.489
			C252.139,27.628,252.039,27.145,251.969,26.691z"/>
		<path style="fill:#A8A8A8;" d="M251.632,26.318c-1.207-7.709-5.403-12.839-9.76-17.236c-2.797-2.82-6.136-4.249-9.924-4.249
			c-1.771,0-3.689,0.301-6.032,0.949c-5.72,1.574-9.505,3.804-11.565,6.803c-1.402,2.025-1.863,4.506-1.269,6.8
			c0.971,3.765,0.913,6.282-0.232,9.983c-1.059,3.445-2.754,6.751-4.431,9.813c-0.086,0.156-0.171,0.321-0.257,0.493
			c-4.029,0.546-7.725,1.638-11.229,3.31c-8.417,4.023-15.495,10.691-22.024,17.176c-2.944,2.926-5.701,5.996-8.369,8.965
			c-3.616,4.023-7.031,7.824-10.876,11.307c-8.325,7.538-16.544,14.053-24.431,19.365c-18.855,12.699-38.742,17.762-58.713,14.929
			c-8.244-1.17-15.649-4.241-23.489-7.494c-2.098-0.87-4.207-1.745-6.352-2.593c-2.738-1.082-5.808-1.653-8.878-1.653
			c-3.136,0-6.106,0.592-8.716,1.725c-1.761-0.474-3.653-0.879-5.592-0.879c-4.176,0-7.665,1.925-10.093,5.569
			c-2.304,3.463-4.78,8.477-3.485,12.683c0.618,2.02,1.288,3.703,3.763,5.431c2.02,1.412,2.295,1.993,2.663,6.231
			c0.007,0.093,0.017,0.185,0.028,0.27c0.023,0.174,0.056,0.347,0.098,0.519c2.443,9.936,6.335,18.716,11.565,26.098
			c2.378,3.358,5.084,6.714,8.517,10.56c0.162,0.182,0.339,0.352,0.527,0.508c15.47,12.798,34.862,17.979,48.406,20.072
			c5.569,0.862,11.311,1.3,17.061,1.3l0,0c21.37,0,43.301-5.809,65.174-17.261c26.423-13.836,49-33.148,63.573-54.381
			c7.715-11.235,12.704-23.557,14.829-36.621c1.069-6.568,1.116-13.872,0.133-20.038c-1.047-6.572-3.173-11.896-6.34-15.894
			c2.531-2.967,4.921-5.401,7.812-6.07c1.358-0.314,3.633-0.843,5.586-2.562c4.355-3.83,3.251-9.251,2.593-12.488
			C251.802,27.257,251.702,26.772,251.632,26.318z"/>
		<path style="fill:#9A9A9A;" d="M251.295,25.947c-1.207-7.709-5.403-12.839-9.759-17.237c-2.798-2.82-6.137-4.249-9.925-4.249
			c-1.771,0-3.688,0.302-6.033,0.949c-5.72,1.575-9.505,3.805-11.564,6.803c-1.401,2.025-1.862,4.506-1.27,6.801
			c0.972,3.764,0.913,6.281-0.231,9.983c-1.058,3.444-2.755,6.751-4.431,9.813c-0.086,0.156-0.17,0.32-0.256,0.492
			c-4.029,0.547-7.726,1.638-11.229,3.311c-8.416,4.023-15.494,10.691-22.023,17.176c-2.944,2.927-5.703,5.995-8.37,8.964
			c-3.617,4.024-7.031,7.825-10.877,11.307c-8.324,7.54-16.543,14.055-24.43,19.367c-18.855,12.699-38.741,17.762-58.714,14.929
			c-8.243-1.171-15.648-4.242-23.488-7.494c-2.098-0.871-4.208-1.746-6.352-2.593c-2.738-1.082-5.808-1.653-8.878-1.653
			c-3.136,0-6.107,0.591-8.715,1.723c-1.763-0.474-3.655-0.878-5.593-0.878c-4.176,0-7.666,1.925-10.094,5.569
			c-2.303,3.463-4.778,8.476-3.484,12.684c0.619,2.02,1.288,3.702,3.763,5.431c2.021,1.411,2.295,1.993,2.663,6.231
			c0.009,0.093,0.018,0.185,0.028,0.268c0.024,0.175,0.056,0.347,0.097,0.519c2.444,9.936,6.336,18.717,11.566,26.098
			c2.379,3.358,5.085,6.714,8.516,10.56c0.163,0.182,0.34,0.353,0.528,0.508c15.47,12.798,34.861,17.979,48.405,20.073
			c5.57,0.862,11.311,1.299,17.061,1.299h0.002c21.368,0,43.3-5.808,65.174-17.26c26.421-13.836,48.998-33.148,63.573-54.381
			c7.714-11.235,12.703-23.557,14.829-36.622c1.067-6.567,1.115-13.871,0.132-20.039c-1.046-6.571-3.174-11.895-6.339-15.892
			c2.53-2.966,4.92-5.4,7.809-6.069c1.359-0.315,3.633-0.844,5.587-2.562c4.354-3.831,3.251-9.251,2.593-12.489
			C251.465,26.884,251.365,26.401,251.295,25.947z"/>
		<path style="fill:#8B8B8B;" d="M250.958,25.576c-1.206-7.709-5.402-12.84-9.759-17.237c-2.799-2.82-6.137-4.25-9.925-4.25
			c-1.77,0-3.688,0.303-6.032,0.949c-5.72,1.575-9.505,3.806-11.564,6.804c-1.401,2.025-1.863,4.506-1.27,6.8
			c0.972,3.765,0.914,6.282-0.23,9.983c-1.06,3.445-2.755,6.751-4.432,9.813c-0.085,0.157-0.171,0.32-0.257,0.493
			c-4.028,0.547-7.725,1.638-11.228,3.311c-8.418,4.023-15.495,10.69-22.025,17.176c-2.943,2.926-5.702,5.995-8.37,8.964
			c-3.615,4.024-7.03,7.824-10.876,11.307c-8.324,7.539-16.542,14.055-24.429,19.367c-18.854,12.699-38.742,17.761-58.714,14.929
			c-8.244-1.171-15.649-4.243-23.489-7.495c-2.098-0.87-4.208-1.745-6.351-2.593c-2.737-1.081-5.808-1.652-8.879-1.652
			c-3.134,0-6.105,0.591-8.715,1.723c-1.761-0.474-3.654-0.878-5.592-0.878c-4.175,0-7.665,1.925-10.093,5.569
			c-2.304,3.463-4.78,8.475-3.486,12.684c0.62,2.02,1.29,3.702,3.763,5.431c2.021,1.41,2.296,1.993,2.664,6.232
			c0.009,0.093,0.017,0.185,0.028,0.268c0.023,0.175,0.056,0.347,0.098,0.519c2.443,9.936,6.335,18.717,11.566,26.098
			c2.377,3.358,5.075,6.721,8.516,10.559c0.163,0.181,0.339,0.353,0.527,0.508c15.47,12.797,34.862,17.979,48.405,20.073
			c5.571,0.862,11.312,1.299,17.062,1.299h0.001c21.369,0,43.3-5.808,65.174-17.261c26.422-13.835,48.999-33.148,63.572-54.38
			c7.715-11.235,12.704-23.557,14.83-36.622c1.067-6.567,1.115-13.871,0.133-20.039c-1.047-6.571-3.174-11.895-6.341-15.894
			c2.531-2.966,4.921-5.399,7.812-6.068c1.358-0.315,3.632-0.845,5.586-2.562c4.355-3.831,3.251-9.251,2.593-12.49
			C251.128,26.513,251.027,26.029,250.958,25.576z"/>
		<path style="fill:#7D7D7D;" d="M250.621,25.205c-1.207-7.71-5.403-12.84-9.759-17.238c-2.799-2.82-6.137-4.249-9.924-4.249
			c-1.771,0-3.689,0.303-6.033,0.949c-5.72,1.574-9.504,3.805-11.564,6.804c-1.402,2.023-1.862,4.506-1.269,6.799
			c0.97,3.766,0.912,6.282-0.232,9.983c-1.059,3.446-2.753,6.751-4.43,9.815c-0.087,0.156-0.172,0.319-0.258,0.492
			c-4.029,0.546-7.724,1.639-11.229,3.312c-8.416,4.021-15.495,10.69-22.025,17.176c-2.944,2.925-5.702,5.994-8.37,8.963
			c-3.615,4.024-7.03,7.825-10.875,11.307c-8.325,7.539-16.543,14.056-24.431,19.368c-18.854,12.697-38.741,17.761-58.713,14.928
			c-8.244-1.171-15.65-4.242-23.489-7.494c-2.098-0.871-4.208-1.747-6.351-2.593c-2.739-1.083-5.809-1.652-8.88-1.652
			c-3.135,0-6.106,0.59-8.715,1.722c-1.761-0.474-3.654-0.877-5.591-0.877c-4.177,0-7.666,1.924-10.094,5.568
			c-2.304,3.463-4.78,8.477-3.486,12.684c0.619,2.02,1.29,3.702,3.763,5.432c2.021,1.409,2.316,1.991,2.665,6.23
			c0.007,0.092,0.016,0.185,0.027,0.269c0.022,0.175,0.056,0.348,0.098,0.518c2.443,9.937,6.335,18.717,11.566,26.099
			c2.378,3.357,5.076,6.721,8.517,10.56c0.163,0.182,0.339,0.351,0.528,0.506c15.496,12.764,34.861,17.98,48.404,20.074
			c5.57,0.862,11.313,1.299,17.062,1.299l0,0c21.37,0,43.3-5.807,65.174-17.261c26.423-13.835,49-33.147,63.573-54.38
			c7.715-11.236,12.704-23.557,14.829-36.623c1.068-6.566,1.117-13.869,0.133-20.038c-1.047-6.57-3.173-11.895-6.34-15.893
			c2.531-2.967,4.92-5.401,7.812-6.069c1.358-0.316,3.632-0.844,5.586-2.562c4.355-3.83,3.251-9.251,2.593-12.489
			C250.791,26.142,250.691,25.657,250.621,25.205z"/>
		<path style="fill:#6E6E6E;" d="M250.283,24.832c-1.206-7.708-5.401-12.838-9.758-17.237c-2.798-2.819-6.137-4.248-9.926-4.248
			c-1.77,0-3.688,0.302-6.032,0.948c-5.72,1.575-9.504,3.805-11.563,6.804c-1.401,2.024-1.862,4.506-1.269,6.8
			c0.971,3.766,0.912,6.281-0.232,9.983c-1.058,3.445-2.763,6.745-4.432,9.814c-0.085,0.156-0.169,0.32-0.255,0.492
			c-4.029,0.547-7.727,1.64-11.229,3.312c-8.418,4.022-15.495,10.69-22.025,17.177c-2.943,2.925-5.702,5.994-8.369,8.963
			c-3.616,4.023-7.032,7.824-10.878,11.307c-8.323,7.54-16.541,14.055-24.428,19.367c-18.855,12.698-38.742,17.761-58.714,14.929
			c-8.244-1.171-15.649-4.243-23.489-7.495c-2.098-0.87-4.208-1.745-6.353-2.593c-2.737-1.082-5.807-1.652-8.877-1.652
			c-3.136,0-6.106,0.591-8.715,1.723c-1.762-0.473-3.655-0.877-5.592-0.877c-4.177,0-7.667,1.924-10.095,5.567
			c-2.304,3.464-4.778,8.478-3.484,12.685c0.618,2.02,1.289,3.702,3.763,5.431c2.021,1.41,2.315,1.99,2.663,6.231
			c0.008,0.093,0.017,0.184,0.027,0.269c0.023,0.174,0.058,0.348,0.099,0.518c2.443,9.938,6.336,18.717,11.566,26.099
			c2.378,3.357,5.084,6.713,8.516,10.559c0.163,0.184,0.339,0.352,0.527,0.508c15.47,12.798,34.861,17.98,48.405,20.074
			c5.571,0.861,11.312,1.298,17.06,1.298c0.002,0-0.001,0,0.002,0c21.368,0,43.3-5.807,65.173-17.259
			c26.423-13.836,49-33.149,63.573-54.381c7.715-11.236,12.704-23.558,14.83-36.623c1.067-6.566,1.116-13.871,0.132-20.038
			c-1.046-6.571-3.173-11.896-6.339-15.893c2.531-2.967,4.92-5.401,7.81-6.07c1.359-0.315,3.633-0.844,5.587-2.562
			c4.354-3.829,3.251-9.25,2.592-12.488C250.455,25.771,250.355,25.286,250.283,24.832z"/>
		<path style="fill:#606060;" d="M249.947,24.461c-1.206-7.709-5.402-12.839-9.759-17.237c-2.799-2.82-6.137-4.249-9.925-4.249
			c-1.771,0-3.688,0.302-6.032,0.949c-5.72,1.575-9.505,3.805-11.564,6.803c-1.401,2.025-1.863,4.506-1.27,6.801
			c0.972,3.765,0.914,6.281-0.23,9.983c-1.06,3.444-2.755,6.751-4.432,9.813c-0.085,0.156-0.171,0.32-0.257,0.492
			c-4.028,0.547-7.725,1.638-11.228,3.311c-8.418,4.023-15.495,10.691-22.025,17.176c-2.943,2.927-5.702,5.996-8.37,8.965
			c-3.615,4.023-7.03,7.824-10.876,11.306c-8.324,7.54-16.542,14.055-24.429,19.367c-18.854,12.699-38.742,17.762-58.714,14.929
			c-8.244-1.171-15.649-4.242-23.489-7.494c-2.098-0.871-4.208-1.746-6.352-2.593c-2.737-1.082-5.808-1.653-8.879-1.653
			c-3.134,0-6.105,0.591-8.715,1.724c-1.761-0.474-3.654-0.879-5.592-0.879c-4.175,0-7.665,1.925-10.093,5.569
			c-2.304,3.463-4.78,8.477-3.486,12.684c0.62,2.02,1.29,3.702,3.763,5.431c2.02,1.411,2.273,1.995,2.664,6.231
			c0.008,0.093,0.017,0.184,0.028,0.268c0.022,0.175,0.056,0.347,0.098,0.519c2.443,9.936,6.335,18.717,11.566,26.098
			c2.377,3.358,5.084,6.714,8.516,10.56c0.163,0.182,0.339,0.353,0.527,0.508c15.47,12.798,34.862,17.979,48.405,20.073
			c5.571,0.862,11.312,1.299,17.062,1.299h0.001c21.369,0,43.3-5.808,65.174-17.26c26.422-13.836,48.999-33.148,63.572-54.381
			c7.715-11.235,12.704-23.557,14.83-36.622c1.067-6.567,1.115-13.871,0.133-20.039c-1.047-6.57-3.174-11.894-6.341-15.893
			c2.531-2.966,4.921-5.4,7.812-6.069c1.358-0.315,3.632-0.844,5.586-2.562c4.355-3.831,3.251-9.251,2.593-12.489
			C250.117,25.398,250.017,24.915,249.947,24.461z"/>
	</g>
	<path style="fill:#FFFFFF;" d="M249.947,24.461c-1.206-7.709-5.402-12.839-9.759-17.237c-2.799-2.82-6.137-4.249-9.925-4.249
		c-1.771,0-3.688,0.302-6.032,0.949c-5.72,1.575-9.505,3.805-11.564,6.803c-1.401,2.025-1.863,4.506-1.27,6.801
		c0.972,3.765,0.914,6.281-0.23,9.983c-1.06,3.444-2.755,6.751-4.432,9.813c-0.085,0.156-0.171,0.32-0.257,0.492
		c-4.028,0.547-7.725,1.638-11.228,3.311c-8.418,4.023-15.495,10.691-22.025,17.176c-2.943,2.927-5.702,5.996-8.37,8.965
		c-3.615,4.023-7.03,7.824-10.876,11.306c-8.324,7.54-16.542,14.055-24.429,19.367c-18.854,12.699-38.742,17.762-58.714,14.929
		c-8.244-1.171-15.649-4.242-23.489-7.494c-2.098-0.871-4.208-1.746-6.352-2.593c-2.737-1.082-5.808-1.653-8.879-1.653
		c-3.134,0-6.105,0.591-8.715,1.724c-1.761-0.474-3.654-0.879-5.592-0.879c-4.175,0-7.665,1.925-10.093,5.569
		c-2.304,3.463-4.78,8.477-3.486,12.684c0.62,2.02,1.29,3.702,3.763,5.431c2.02,1.411,2.273,1.995,2.664,6.231
		c0.008,0.093,0.017,0.184,0.028,0.268c0.022,0.175,0.056,0.347,0.098,0.519c2.443,9.936,6.335,18.717,11.566,26.098
		c2.377,3.358,5.084,6.714,8.516,10.56c0.163,0.182,0.339,0.353,0.527,0.508c15.47,12.798,34.862,17.979,48.405,20.073
		c5.571,0.862,11.312,1.299,17.062,1.299h0.001c21.369,0,43.3-5.808,65.174-17.26c26.422-13.836,48.999-33.148,63.572-54.381
		c7.715-11.235,12.704-23.557,14.83-36.622c1.067-6.567,1.115-13.871,0.133-20.039c-1.047-6.57-3.174-11.894-6.341-15.893
		c2.531-2.966,4.921-5.4,7.812-6.069c1.358-0.315,3.632-0.844,5.586-2.562c4.355-3.831,3.251-9.251,2.593-12.489
		C250.117,25.398,250.017,24.915,249.947,24.461z"/>
	<g>
		<path style="fill:#5E2C00;" d="M245.154,25.21c-0.949-6.069-4.177-10.298-8.409-14.57c-3.371-3.397-6.913-3.231-11.226-2.04
			c-2.915,0.803-7.068,2.273-8.864,4.887c-0.555,0.802-0.813,1.857-0.561,2.83c1.178,4.57,1.129,8.021-0.292,12.618
			c-1.161,3.779-2.923,7.266-4.813,10.716c-0.337,0.617-0.754,1.608-1.218,2.705c-4.24,0.289-8.384,1.215-12.43,3.147
			c-7.781,3.719-14.648,10.23-20.698,16.24c-6.691,6.649-12.394,14.073-19.409,20.426c-7.822,7.085-16.227,13.901-24.976,19.794
			c-18.633,12.551-39.626,18.897-62.104,15.708c-11.147-1.583-20.648-6.313-30.941-10.378c-4.655-1.84-10.849-1.884-15.321,0.738
			c-4.494-1.304-8.929-2.617-12.137,2.198c-1.306,1.962-3.654,6.079-2.887,8.575c0.428,1.396,0.631,1.987,1.899,2.875
			c3.859,2.692,4.299,5.199,4.722,9.791c0,0.017,0.002,0.032,0.004,0.047c2.148,8.735,5.567,17.051,10.813,24.453
			c2.519,3.556,5.288,6.895,8.177,10.133c12.719,10.52,29.544,16.465,46.057,19.018c27.438,4.247,54.974-2.758,79.244-15.465
			c23.528-12.32,46.721-30.825,61.824-52.829c7.167-10.438,12.008-22.157,14.04-34.655c1.671-10.28,1.328-27.407-7.951-34.913
			c0.748-0.895,1.495-1.79,2.243-2.682c2.989-3.553,6.284-7.262,11.002-8.351c1.238-0.288,2.495-0.613,3.48-1.479
			C247.14,32.356,245.626,28.223,245.154,25.21z"/>
		<path style="fill:#FEE96F;" d="M240.13,33.294c-1.466,0.341-2.741,1.114-4.031,1.844c-4.253,2.405-7.61,6.375-10.64,10.604
			c-0.193-0.108-0.381-0.221-0.58-0.323c-0.236-0.121-0.537-0.072-0.829,0.059c1.254,1.427,2.061,3.368,2.796,5.018
			c1.101,2.469,2.148,4.865,2.924,7.375c0.665,1.788,1.204,3.562,1.604,5.175c1.657,6.676,1.25,13.872,0.407,20.635
			c-1.675,13.423-8.023,25.934-16.003,36.659c-14.806,19.892-36.747,36.142-58.553,47.542
			c-23.708,12.392-50.423,17.568-76.937,13.477c-13.353-2.06-26.505-7.181-38.207-13.913c-9.634-7.788-16.917-18.57-21.096-30.249
			c-2.179-6.094-0.468-13.9-6.345-17.966c-3.428-2.371-0.806-8.924,3.483-8.505c1.751,0.173,3.418,0.707,5.191,0.851
			c2.529,0.201,5.182-1.136,7.463-2.031c0.146-0.058,0.347-0.398,0.066-0.368c-0.673,0.063-1.362,0.033-2.054-0.04
			c0.651-0.314,1.311-0.61,1.998-0.865c1.681-0.619,3.66-0.097,5.401-0.149c0.057-0.004,0.15-0.045,0.232-0.103
			c5.059,1.312,10.12,4.204,14.389,5.914c8.537,3.42,17.639,5.558,26.785,6.418c18.146,1.707,34.694-3.612,50.324-12.395
			c7.942-4.461,14.91-10.111,21.992-15.776c6.984-5.595,13.929-11.51,19.792-18.302c6.373-7.39,13.046-14.212,20.562-20.449
			c5.208-4.327,10.607-6.49,16.392-7.79c1.294-0.411,2.604-0.653,3.419-0.824c3.471-0.729,6.98-1.053,10.479-1.526
			c0.171-0.241,0.224-0.511-0.117-0.552c-2.912-0.345-5.782-0.537-8.608-0.475c2.953-4.342,5.317-9.269,7.038-13.832
			c1.563-4.147,2.27-8.06,1.155-12.364c-0.799-3.083,4.452-4.14,6.356-4.662c3.706-1.021,5.901,0.633,8.398,3.156
			c3.607,3.647,6.104,7.677,6.895,12.796C242.091,30.079,243.23,32.579,240.13,33.294z"/>
		<path style="fill:#FEE96F;" d="M101.676,122.134c16.002-3.121,31.463-9.762,43.538-20.897
			c6.038-5.567,11.184-11.905,15.896-18.574c-3.611,3.327-7.391,6.472-11.196,9.518c-7.082,5.665-14.05,11.315-21.992,15.776
			c-15.63,8.782-32.179,14.102-50.324,12.395c-7.171-0.675-14.314-2.146-21.177-4.396
			C70.272,123.106,86.293,125.136,101.676,122.134z"/>
		<path style="fill:#F8C447;" d="M241.673,27.355c-0.79-5.119-3.287-9.148-6.895-12.796c-2.497-2.523-4.692-4.177-8.398-3.156
			c-0.256,0.068-0.572,0.15-0.927,0.24c5.238,1.983,7.529,8.346,5.52,14.116c-0.778,2.231-2.04,4.242-3.054,6.367
			c-0.871,1.83-1.695,3.78-2.985,5.366c-2.708,3.338-6.737,4.09-10.75,4.779c2.06,0.05,4.149,0.215,6.254,0.464
			c0.341,0.041,0.288,0.311,0.117,0.552c-3.499,0.474-7.008,0.798-10.479,1.526c-0.814,0.171-2.125,0.413-3.419,0.824
			c-5.784,1.3-11.184,3.463-16.392,7.79c-7.516,6.237-14.188,13.06-20.562,20.449c-0.106,0.122-0.22,0.242-0.328,0.364
			c2.836-2.51,5.655-5.056,8.592-7.441c6.504-5.289,21.054-16.206,29.276-7.815c3.646,3.724,3.971,9.149,3.412,14.064
			c-0.659,5.767-2.393,11.513-4.759,16.797c-10.5,23.484-33.037,40.087-55.925,50.396c-24.691,11.121-52.664,15.886-79.612,12.226
			c-7.735-1.049-15.437-2.793-22.672-5.771c-5.72-2.356-11.968-5.166-16.301-9.725c-5.535-5.82-9.991-15.116-17.378-18.311
			c0.185,0.205,0.39,0.397,0.631,0.566c5.877,4.065,4.166,11.872,6.345,17.966c4.179,11.679,11.462,22.461,21.096,30.249
			c11.702,6.732,24.854,11.854,38.207,13.913c26.514,4.092,53.228-1.085,76.937-13.477c21.806-11.4,43.747-27.65,58.553-47.542
			c7.979-10.725,14.328-23.236,16.003-36.659c0.843-6.763,1.25-13.959-0.407-20.635c-0.4-1.613-0.939-3.387-1.604-5.175
			c-0.775-2.51-1.823-4.906-2.924-7.375c-0.735-1.649-1.542-3.591-2.796-5.018c0.292-0.131,0.593-0.18,0.829-0.059
			c0.199,0.103,0.387,0.215,0.58,0.323c3.029-4.229,6.387-8.199,10.64-10.604c1.29-0.729,2.565-1.503,4.031-1.844
			C243.23,32.579,242.091,30.079,241.673,27.355z"/>
		<path style="fill:#F8C447;" d="M227.227,30.85c1.882-3.837,4.22-7.706,3.065-12.187c-0.8-3.107-3.551-5.824-6.735-6.448
			c-2.014,0.701-4.05,1.847-3.533,3.851c1.114,4.305,0.407,8.218-1.155,12.364c-1.631,4.326-3.857,8.967-6.604,13.136
			c2.247-0.387,4.475-0.831,6.612-1.487C223.593,38.624,225.209,34.966,227.227,30.85z"/>
		<path style="fill:#9FC443;" d="M14.642,119.229c1.11,0.769,1.949,1.667,2.594,2.667c3.832-0.096,7.992-1.057,10.376-3.959
			c2.177-2.648,1.273-5.012-0.655-6.909c-1.207,0.387-2.435,0.644-3.64,0.547c-1.773-0.144-3.44-0.678-5.191-0.851
			C13.836,110.306,11.214,116.858,14.642,119.229z"/>
		<path style="fill:#9FC443;" d="M241.673,27.355c-0.79-5.119-3.287-9.148-6.895-12.796c-2.497-2.523-4.692-4.177-8.398-3.156
			c-1.904,0.523-7.155,1.579-6.356,4.662c1.114,4.305,0.407,8.218-1.155,12.364c-1.721,4.563-4.085,9.49-7.038,13.832
			c2.826-0.063,5.696,0.13,8.608,0.475c0.341,0.041,0.288,0.311,0.117,0.552c-3.499,0.474-7.008,0.798-10.479,1.526
			c-0.814,0.171-2.125,0.413-3.419,0.824c-3.132,0.706-6.146,1.677-9.081,3.092c5.449-1.776,11.238-2.393,17.07-1.418
			c4.95,0.828,9.516,2.815,13.356,5.842c-0.374-0.884-0.76-1.768-1.158-2.659c-0.735-1.649-1.542-3.591-2.796-5.018
			c0.292-0.131,0.593-0.18,0.829-0.059c0.199,0.103,0.387,0.215,0.58,0.323c3.029-4.229,6.387-8.199,10.64-10.604
			c1.29-0.729,2.565-1.503,4.031-1.844C243.23,32.579,242.091,30.079,241.673,27.355z"/>
	</g>
</g>
</svg>
