<?xml version="1.0" encoding="utf-8"?>
<!-- Generator: Adobe Illustrator 27.5.0, SVG Export Plug-In . SVG Version: 6.00 Build 0)  -->
<svg version="1.1" id="Layer_1" xmlns="http://www.w3.org/2000/svg" xmlns:xlink="http://www.w3.org/1999/xlink" x="0px" y="0px"
	 viewBox="0 0 4000 4000" style="enable-background:new 0 0 4000 4000;" xml:space="preserve">
<rect style="fill:#FFFFFF;" width="4000" height="4000"/>
<g>
	<path style="fill-rule:evenodd;clip-rule:evenodd;fill:#FFCE4B;" d="M2191.399,1157.663c516.564,0,935.323,418.759,935.323,935.323
		c0,516.566-418.759,935.326-935.323,935.326c-516.566,0-935.326-418.759-935.326-935.326
		C1256.073,1576.422,1674.832,1157.663,2191.399,1157.663"/>
	<path style="fill-rule:evenodd;clip-rule:evenodd;fill:#FFCE4B;" d="M2620.218,1994.337c-9.513-20.926-14.954-40.722-17.846-53.795
		c-89.538,11.803-548.198,49.936-784.912-365.984c-44.244-77.73-72.816-175.28-101.726-273.98
		c-29.121-99.416-58.595-200.035-104.371-280.327c-9.294-6.658-19.266-11.61-29.442-15.236c-8.175-2.913-16.488-4.976-24.701-6.376
		c-35.008,316.813,24.059,551.008,131.624,718.539c68.435,106.594,156.545,186.288,252.497,243.148
		c96.07,56.929,200.089,91.022,300.173,106.347c155.336,23.782,300.506,2.426,391.071-48.869
		C2627.849,2010.031,2623.752,2002.108,2620.218,1994.337"/>
	<path style="fill-rule:evenodd;clip-rule:evenodd;fill:#FCE2A6;" d="M2052.862,1825.94
		c-87.123-55.745-169.795-136.101-235.404-251.382c-44.244-77.73-72.814-175.28-101.726-273.978
		c-29.123-99.418-58.595-200.038-104.371-280.33c-9.294-6.658-19.268-11.61-29.439-15.236c-8.18-2.913-16.491-4.972-24.705-6.376
		c-7.571,68.504-10.733,133.133-9.967,194.07c12.697-40.154,43.752-70.89,119.306,46.432c0,0,11.552,430.683,386.108,586.721
		L2052.862,1825.94z"/>
	<path style="fill-rule:evenodd;clip-rule:evenodd;fill:#E57E22;" d="M2651.294,2043.426
		c-96.268,55.81-250.571,79.521-414.556,54.412c-103.75-15.885-211.675-51.289-311.499-110.442
		c-99.936-59.22-191.691-142.202-262.938-253.17c-111.051-172.965-172.191-413.736-136.511-738.156
		c-24.623-0.04-44.833,4.201-53.258,6.281c-46.283,53.01-77.794,121.276-95.069,198.714c-20.92,93.771-20.991,200.866-1.196,310.746
		c19.877,110.326,59.72,223.267,118.545,328.223c118.993,212.303,315.66,392.066,581.813,451.439
		c132.744,29.616,273.611,47.056,392.975,19.808c111.948-25.558,205.467-91.125,255.752-224.551
		C2693.409,2080.559,2669.347,2063.865,2651.294,2043.426"/>
	<path style="fill-rule:evenodd;clip-rule:evenodd;fill:#97DA04;" d="M2667.523,2013.37c6.292,8.451,13.645,16.369,22.219,23.118
		c13.13,10.282,29.052,17.788,48.332,20.319c0.68-1.126,1.422-2.333,2.23-3.617c19.766-31.452,78.13-107.944,170.501-92.402
		c1.375,0.231,2.757,0.484,4.146,0.755c4.93,0.031,30.607-1.364,53.281-32.318l0.249-0.338l0.844-0.922
		c0.062-0.071,23.152-23.763-47.667-104.903c-7.414-4.614-41.942-23.456-75.024,2.924l-0.667,0.489
		c-0.371,0.262-120.899,87.097-212.579,108.658C2637.544,1953.521,2647.21,1986.086,2667.523,2013.37"/>
	<path style="fill-rule:evenodd;clip-rule:evenodd;fill:#97DA04;" d="M1544.656,965.294c11.206,0.922,22.853,2.75,34.49,5.847
		c-9.217-12.121-19.015-23.503-29.483-34.035c-13.763,8.382-26.753,17.702-38.975,27.888
		C1521.16,964.366,1532.667,964.306,1544.656,965.294"/>
	<path style="fill:#231916;" d="M1346.672,1194.16c28.422-127.41,93.557-232.069,197.644-290.407l10.06-5.639l8.397,7.82
		c96.609,90,140.292,239.141,183.232,385.737c28.39,96.919,56.447,192.706,98.882,267.264
		c251.608,442.084,765.978,348.42,767.464,348.167l0.349-0.024c82.438-12.477,205.507-99.478,214.365-105.801
		c55.836-44.373,113.812-3.359,113.979-3.241l1.544,1.062l1.309,1.491c82.66,93.942,55.745,139.403,49.722,147.372l0.038,0.027
		c-35.351,48.256-81.369,45.028-81.503,45.021l-1.211-0.073l-0.995-0.204c-89.976-18.469-142.828,76.002-148.558,86.819
		c-52.699,157.396-157.813,233.507-284.773,262.492c-124.88,28.508-270.337,10.686-406.896-19.777
		c-275.82-61.532-479.376-247.374-602.349-466.784c-60.634-108.178-101.681-224.491-122.139-338.036
		C1324.695,1403.448,1324.837,1292.031,1346.672,1194.16 M1549.662,937.106c-89.796,54.681-146.614,149.26-172.199,263.958
		c-20.92,93.771-20.991,200.866-1.196,310.746c19.877,110.326,59.72,223.267,118.545,328.223
		c118.993,212.303,315.66,392.066,581.813,451.439c132.744,29.616,273.611,47.056,392.975,19.808
		c116.958-26.699,213.798-97.07,262.239-242.868l0.36-1.084l0.575-1.124c0.187-0.371,64.025-127.83,182.176-104.661
		c4.93,0.031,30.607-1.364,53.281-32.318l0.249-0.338l0.844-0.922c0.062-0.071,23.152-23.763-47.667-104.903
		c-7.414-4.614-41.942-23.456-75.024,2.924l-0.667,0.489c-0.391,0.278-135.315,97.483-228.241,111.735l0.007,0.031
		c-1.551,0.267-537.576,97.883-800.273-363.683c-44.244-77.73-72.816-175.28-101.726-273.98
		C1675.294,1162.522,1634.174,1022.15,1549.662,937.106z"/>
	<path style="fill:#231916;" d="M2630.646,1920.506c0.051,0.378,17.106,132.738,116.837,137.112l-1.333,31.532
		c-126.34-5.541-146.656-163.856-146.719-164.312L2630.646,1920.506z"/>
	<path style="fill:#231916;" d="M1552.038,917.474l15.583,2.388c-0.748,4.881-1.465,9.735-2.169,14.578L1552.038,917.474z
		 M1535.186,923.614c0.423-2.841,0.834-5.674,1.27-8.529l15.582,2.388L1535.186,923.614z M2663.408,2036.035
		c-95.108,61.068-255.623,87.992-426.67,61.803c-103.75-15.885-211.675-51.289-311.499-110.442
		c-99.936-59.22-191.691-142.202-262.938-253.17c-112.232-174.804-173.485-418.868-135.339-748.538
		c10.075-0.155,20.901-0.027,31.659,0.615c-37.93,323.078,21.263,561.177,130.221,730.874
		c68.435,106.594,156.545,186.288,252.497,243.148c96.07,56.929,200.089,91.022,300.173,106.347
		c163.479,25.031,315.702,0.064,404.847-57.176L2663.408,2036.035z"/>
	<path style="fill:#231916;" d="M1581.919,1005.015c-13.251-4.719-26.863-7.207-39.829-8.273
		c-40.196-3.312-73.687,6.703-73.786,6.732l-26.574,7.78l31.274-46.021l10.846-18.771c3.764-3.29,7.597-6.507,11.497-9.642
		c15.255-12.261,31.578-23.318,48.969-33.067l10.062-5.639l8.395,7.82c14.566,13.57,27.938,28.504,40.294,44.584
		c12.225,15.914,23.488,33.027,33.954,51.113l6.324,10.928l-0.088,0.049l5.708,36.144l-35.132-26.677
		C1603.845,1014.488,1593.003,1008.965,1581.919,1005.015 M1544.656,965.294c11.206,0.922,22.853,2.75,34.509,5.849l-1.083-1.413
		c-8.902-11.59-18.354-22.498-28.424-32.631c-12.116,7.374-23.62,15.465-34.519,24.222c-1.506,1.211-3.005,2.437-4.491,3.675
		C1521.131,964.366,1532.655,964.306,1544.656,965.294z"/>
	<path style="fill:#231916;" d="M2612.699,1907.078c82.438-12.477,205.507-99.478,214.365-105.801
		c55.836-44.373,113.812-3.359,113.979-3.241l1.544,1.062l1.309,1.491c82.66,93.942,55.745,139.403,49.722,147.372l0.038,0.027
		c-35.351,48.256-81.369,45.028-81.503,45.021l-1.211-0.073l-0.995-0.204c-95.268-19.553-148.929,87.528-149.087,87.834l-4.61,9.029
		l-10.099-0.444c-24.285-1.062-44.775-7.876-62.037-18.229c-16.998-10.191-30.759-23.834-41.866-38.756
		c-35.066-47.11-42.798-107.243-42.82-107.416l-2.031-15.356L2612.699,1907.078z M2845.966,1826.475
		c-0.366,0.262-120.899,87.088-212.579,108.658c4.157,18.388,13.823,50.953,34.135,78.237c8.753,11.761,19.566,22.492,32.867,30.467
		c10.766,6.456,23.243,11.093,37.683,12.97c17.535-29.081,78.294-114.594,176.877-95.263c4.93,0.031,30.607-1.364,53.281-32.318
		l0.249-0.338l0.844-0.922c0.062-0.071,23.152-23.763-47.667-104.903c-7.414-4.614-41.942-23.456-75.024,2.924L2845.966,1826.475z"
		/>
	<path style="fill-rule:evenodd;clip-rule:evenodd;fill:#B75400;" d="M2236.736,2097.838
		c-103.748-15.885-211.672-51.289-311.497-110.442c-2.953-1.751-5.898-3.519-8.838-5.31c-3.008,50.138-69.606,43.655-131.62,26.453
		c-55.132-15.294-106.643-39.065-106.643-39.065c172.774,152.322,358.815,198.036,520.294,197.818
		c204.141-0.273,369.024-73.949,418.202-98.432c-1.4-2.281-2.633-4.365-3.695-6.205c-3.197-5.541-4.845-8.882-4.872-8.948
		c-0.029-0.051-0.04-0.082-0.044-0.084l-7.525-15.112l3.266-1.704c-26.34,13.321-96.876,46.216-193.564,69.817
		C2355.24,2109.666,2296.633,2107.011,2236.736,2097.838 M2198.432,2167.293c204.141-0.273,369.024-73.949,418.213-98.438
		C2567.454,2093.344,2402.573,2167.02,2198.432,2167.293z"/>
	<path style="fill-rule:evenodd;clip-rule:evenodd;fill:#FFCE4B;" d="M2654.084,2117.982
		c-17.213-18.198-29.827-36.675-37.439-49.127c-88.103,43.859-547.321,245.501-938.509-99.38
		c-73.11-64.454-137.086-154.879-201.817-246.372c-65.202-92.158-131.192-185.428-206.791-251.979
		c-11.937-3.57-23.965-5.145-35.736-5.281c-9.459-0.107-18.755,0.709-27.716,2.171c76.055,338.918,219.825,559.382,389.981,693.974
		c108.266,85.637,227.283,136.588,346.302,161.228c119.166,24.671,238.438,22.994,347.016,3.361
		c168.515-30.467,310.573-103.861,385.757-188.783C2667.503,2131.456,2660.476,2124.742,2654.084,2117.982"/>
	<path style="fill-rule:evenodd;clip-rule:evenodd;fill:#FCE2A6;" d="M1851.567,2087.263
		c-58.349-29.192-116.607-67.691-173.429-117.789c-73.113-64.452-137.086-154.879-201.819-246.37
		c-65.202-92.16-131.192-185.43-206.791-251.981c-11.937-3.57-23.968-5.145-35.736-5.281c-9.459-0.107-18.755,0.709-27.716,2.171
		c23.074,102.826,52.392,194.73,86.779,276.659c0.404-1.002,37.37-89.823,314.8,211.472
		C1607.655,1956.145,1689.102,2083.138,1851.567,2087.263"/>
	<path style="fill-rule:evenodd;clip-rule:evenodd;fill:#E57E22;" d="M2703.489,2157.576
		c-79.465,91.595-230.107,170.65-408.006,202.813c-112.552,20.35-236.315,22.063-360.137-3.572
		c-123.96-25.662-247.896-78.712-360.607-167.864c-175.674-138.954-323.909-365.471-401.963-712.461
		c-25.393,8.676-44.724,20.199-52.668,25.324c-28.939,71.016-37.253,152.528-27.649,238.454
		c11.631,104.048,49.461,214.454,108.755,320.692c59.54,106.674,140.576,208.973,238.353,296.325
		c197.786,176.693,464.105,292.353,759.435,259.344c147.294-16.462,298.651-48.347,412.028-118.679
		c106.336-65.965,179.514-166.64,184.113-321.954C2760.036,2180.941,2729.326,2172.256,2703.489,2157.576"/>
	<path style="fill-rule:evenodd;clip-rule:evenodd;fill:#97DA04;" d="M2709.576,2120.854c9.473,6.485,19.855,12.043,31.083,15.965
		c17.169,5.947,36.235,8.051,57,3.832c0.304-1.397,0.642-2.906,1.02-4.517c9.238-39.412,42.32-138.907,143.022-155.581
		c1.5-0.247,3.015-0.475,4.541-0.691c5.092-1.711,31.063-12.239,43.477-52.164l0.133-0.44l0.544-1.246
		c0.042-0.095,15.451-32.689-86.259-91.249c-9.273-2.133-51.528-9.329-76.286,29.57l-0.515,0.738
		c-0.289,0.402-93.777,132.558-180.634,187.228C2657.492,2069.786,2678.984,2099.922,2709.576,2120.854"/>
	<path style="fill-rule:evenodd;clip-rule:evenodd;fill:#97DA04;" d="M1181.325,1438.095c11.876-3.012,24.526-5.256,37.619-6.183
		c-13.79-9.231-27.919-17.491-42.434-24.642c-11.221,13.512-21.31,27.715-30.301,42.54
		C1156.782,1445.455,1168.622,1441.318,1181.325,1438.095"/>
	<path style="fill:#231916;" d="M1058.279,1744.051c-15.801-141.376,14.285-272.298,100.912-369.264l8.374-9.371l11.42,5.088
		c131.426,58.567,229.237,196.814,325.382,332.704c63.563,89.84,126.383,178.632,196.509,240.456
		c415.798,366.578,912.781,87.985,914.22,87.195l0.349-0.149c80.554-42.038,176.602-175.264,183.493-184.913
		c41.838-65.5,116.107-43.748,116.322-43.688l1.966,0.551l1.88,1.071c118.439,67.56,106.794,123.945,103.408,134.288l0.042,0.013
		c-19.35,62.25-67.922,75.213-68.062,75.251l-1.273,0.353l-1.102,0.142c-99.269,12.812-120.301,128.885-122.378,142.062
		c1.397,180.872-80.001,296.519-200.595,371.332c-118.613,73.583-274.835,106.7-426.364,123.636
		c-306.052,34.209-581.626-85.282-786.029-267.888c-100.78-90.034-184.256-195.381-245.529-305.165
		C1109.705,1967.533,1070.418,1852.651,1058.279,1744.051 M1176.51,1407.27c-73.196,88.141-98.278,205.729-84.052,333
		c11.631,104.048,49.461,214.454,108.755,320.692c59.54,106.674,140.576,208.973,238.353,296.325
		c197.786,176.693,464.105,292.353,759.435,259.344c147.294-16.462,298.651-48.347,412.028-118.679
		c111.093-68.915,185.997-175.718,184.313-343.128l-0.009-1.248l0.193-1.362c0.062-0.447,20.743-154.408,150.715-172.349
		c5.092-1.711,31.063-12.239,43.477-52.164l0.133-0.44l0.544-1.246c0.042-0.095,15.451-32.689-86.259-91.249
		c-9.273-2.133-51.528-9.329-76.286,29.57l-0.515,0.738c-0.304,0.427-104.961,148.365-195.688,195.948l0.016,0.027
		c-1.502,0.824-519.408,291.162-953.527-91.571c-73.11-64.454-137.086-154.879-201.817-246.372
		C1385.776,1595.13,1293.713,1465.007,1176.51,1407.27z"/>
	<path style="fill:#231916;" d="M2638.697,2038.194c0.189,0.373,64.616,130.754,168.95,99.962l9.786,32.971
		c-132.173,39.007-209.146-116.971-209.371-117.417L2638.697,2038.194z"/>
	<path style="fill:#231916;" d="M1172.009,1386.193l16.906-3.052c0.958,5.294,1.937,10.551,2.925,15.794L1172.009,1386.193z
		 M1156.815,1398.49c-0.57-3.079-1.151-6.143-1.713-9.24l16.907-3.057L1156.815,1398.49z M2713.357,2145.675
		c-76.409,96.599-232.316,181.163-417.875,214.714c-112.552,20.35-236.315,22.063-360.137-3.572
		c-123.96-25.662-247.896-78.712-360.607-167.864c-177.543-140.436-327.058-370.297-404.429-723.573
		c10.327-3.728,21.532-7.427,32.849-10.573c75.258,346.408,220.539,570.848,392.898,707.182
		c108.266,85.637,227.283,136.588,346.302,161.228c119.166,24.671,238.438,22.994,347.016,3.361
		c177.348-32.065,325.397-111.677,397.019-202.221L2713.357,2145.675z"/>
	<path style="fill:#231916;" d="M1233.791,1465.843c-15.329-0.173-30.236,2.082-43.982,5.567
		c-42.601,10.815-73.572,32.993-73.661,33.058l-24.637,17.424l15.943-58.5l4.534-23.187c2.716-4.723,5.527-9.395,8.437-14.005
		c11.385-18.035,24.291-35.211,38.765-51.413l8.374-9.373l11.42,5.09c19.815,8.829,38.885,19.488,57.308,31.687
		c18.232,12.074,35.898,25.724,53.088,40.66l10.385,9.026l-0.073,0.082l18.676,35.231l-45.651-15.063
		C1259.739,1467.844,1246.611,1465.989,1233.791,1465.843 M1181.325,1438.095c11.876-3.012,24.526-5.256,37.638-6.185l-1.615-1.073
		c-13.28-8.793-26.882-16.691-40.846-23.571c-9.877,11.888-18.869,24.3-27.002,37.181c-1.127,1.784-2.237,3.577-3.328,5.379
		C1156.754,1445.466,1168.606,1441.325,1181.325,1438.095z"/>
	<path style="fill:#231916;" d="M2615.446,2030.71c80.554-42.038,176.602-175.264,183.493-184.913
		c41.838-65.5,116.107-43.748,116.322-43.688l1.966,0.551l1.88,1.071c118.439,67.56,106.794,123.945,103.408,134.288l0.042,0.013
		c-19.35,62.25-67.922,75.213-68.062,75.251l-1.273,0.353l-1.102,0.142c-105.108,13.565-122.512,142.926-122.563,143.297
		l-1.56,10.933l-10.564,3.119c-25.402,7.5-48.938,7.729-70.39,3.17c-21.125-4.485-40.138-13.676-56.869-25.126
		c-52.813-36.139-82.065-95.379-82.151-95.548l-7.525-15.112L2615.446,2030.71z M2827.335,1865.072
		c-0.287,0.402-93.779,132.551-180.634,187.228c10.79,17.487,32.282,47.623,62.874,68.555c13.183,9.022,28.124,16.258,44.657,19.768
		c13.383,2.844,27.881,3.206,43.428,0.029c7.78-36.177,40.134-145.817,148.58-160.788c5.092-1.711,31.063-12.239,43.477-52.164
		l0.133-0.44l0.544-1.246c0.042-0.095,15.451-32.689-86.259-91.249c-9.273-2.133-51.528-9.329-76.286,29.57L2827.335,1865.072z"/>
	<path style="fill-rule:evenodd;clip-rule:evenodd;fill:#FFCE4B;" d="M2754.859,2233.775c-25.36-11.63-46.085-25.469-59.135-35.162
		c-72.758,82.003-463.216,481.576-1010.997,288.177c-102.377-36.144-206.132-102.919-311.11-170.488
		c-105.743-68.055-212.765-136.935-318.586-174.209c-13.821,1.284-26.903,4.667-39.12,9.428
		c-9.815,3.828-19.081,8.544-27.732,13.785c219.721,318.473,460.07,486.37,691.922,554.563
		c147.514,43.386,291.693,46.459,424.924,22.347c133.386-24.138,255.912-75.544,359.913-141.044
		c161.408-101.657,277.613-236.646,319.921-355.696C2774.336,2242.111,2764.281,2238.099,2754.859,2233.775"/>
	<path style="fill-rule:evenodd;clip-rule:evenodd;fill:#FCE2A6;" d="M2365.137,2447.521
		c-174.833,85.031-408.182,135.382-680.409,39.27c-102.377-36.144-206.132-102.919-311.11-170.488
		c-105.743-68.055-212.765-136.935-318.586-174.209c-13.821,1.284-26.903,4.667-39.12,9.428
		c-9.815,3.828-19.081,8.544-27.732,13.785c46.812,67.846,94.558,128.837,142.96,183.511c-0.836-2.037-61.537-151.164,154.321,4.17
		c217.333,156.403,778.621,311.845,1079.554,94.624L2365.137,2447.521z"/>
	<path style="fill-rule:evenodd;clip-rule:evenodd;fill:#E57E22;" d="M2822.392,2254.108
		c-43.953,127.726-166.664,272.134-337.063,379.452c-107.807,67.897-234.955,121.21-373.558,146.292
		c-138.758,25.111-288.896,21.921-442.466-23.25c-239.365-70.401-486.85-242.686-711.999-568.673
		c-22.62,19.542-37.791,39.496-43.866,48.101c-0.322,85.422,25.035,173.098,70.741,257.871
		c55.349,102.653,140.414,200.962,245.917,286.028c105.936,85.415,232.266,157.356,369.658,206.878
		c277.929,100.182,601.24,108.764,892.607-48.334c145.321-78.353,288.416-174.325,376.26-294.204
		c82.389-112.437,116.064-246.925,56.132-409.299C2890.543,2254.696,2855.201,2258.513,2822.392,2254.108"/>
	<path style="fill-rule:evenodd;clip-rule:evenodd;fill:#97DA04;" d="M2813.388,2213.636c12.488,2.75,25.529,4.172,38.763,3.546
		c20.215-1.002,40.789-6.774,60.484-19.779c-0.267-1.571-0.549-3.27-0.829-5.09c-6.865-44.568-14.123-161.135,82.973-220.301
		c1.444-0.88,2.912-1.746,4.403-2.604c4.546-3.886,26.991-25.58,23.189-72.001l-0.042-0.507l0.042-1.517
		c0.002-0.118,2.348-40.205-127.119-58.349c-10.47,1.66-57.123,11.821-66.498,62.321l-0.229,0.975
		c-0.129,0.538-41.678,176.004-108.644,268.662C2738.313,2182.565,2773.066,2204.75,2813.388,2213.636"/>
	<path style="fill-rule:evenodd;clip-rule:evenodd;fill:#97DA04;" d="M950.153,2144.704c11.013-8.06,23.149-15.645,36.288-22.054
		c-18.089-3.794-36.127-6.443-54.101-7.787c-5.966,18.631-10.475,37.508-13.591,56.567
		C927.86,2162.528,938.368,2153.326,950.153,2144.704"/>
	<path style="fill:#231916;" d="M950.448,2512.043c-75.203-139.478-98.645-287.272-49.529-423.527l4.749-13.172l13.919,0.502
		c160.17,5.772,318.797,107.869,474.72,208.222c103.087,66.347,204.967,131.918,303.165,166.587
		c582.24,205.563,979.672-289.238,980.829-290.651l0.298-0.3c65.716-76.979,109.464-254.619,112.563-267.46
		c15.949-85.097,101.737-93.553,101.986-93.577l2.262-0.251l2.386,0.322c150.502,20.477,161.952,83.58,162.759,95.674l0.053-0.004
		c5.932,72.372-38.854,105.994-38.981,106.089l-1.171,0.895l-1.077,0.604c-97.221,54.579-70.615,183.26-67.271,197.738
		c76.771,186.283,40.836,339.663-52.595,467.175c-91.904,125.42-239.511,224.698-389.007,305.301
		c-301.946,162.801-636.417,154.114-923.64,50.582c-141.616-51.044-271.732-125.122-380.758-213.025
		C1096.65,2721.512,1008.215,2619.188,950.448,2512.043 M932.34,2114.863c-38.914,121.545-15.856,253.477,51.842,379.039
		c55.349,102.653,140.414,200.962,245.917,286.028c105.936,85.415,232.266,157.356,369.658,206.878
		c277.929,100.182,601.24,108.764,892.607-48.334c145.321-78.353,288.416-174.325,376.26-294.204
		c86.075-117.466,118.979-259.002,47.525-431.26l-0.533-1.286l-0.367-1.488c-0.122-0.487-42.875-168.162,83.935-240.827
		c4.546-3.886,26.991-25.58,23.189-72.001l-0.042-0.507l0.042-1.517c0.002-0.118,2.348-40.205-127.119-58.349
		c-10.47,1.66-57.123,11.821-66.498,62.321l-0.229,0.975c-0.135,0.569-46.647,196.996-120.568,283.938l0.027,0.027
		c-1.206,1.475-415.36,517.117-1023.258,302.495c-102.377-36.144-206.132-102.919-311.11-170.488
		C1226.775,2221.796,1077.471,2125.704,932.34,2114.863z"/>
	<path style="fill:#231916;" d="M2705.737,2157.753c0.351,0.304,121.212,108.176,216.18,32.914l23.843,29.99
		c-120.31,95.346-264.794-33.746-265.211-34.113L2705.737,2157.753z"/>
	<path style="fill:#231916;" d="M918.913,2094.964l16.191-10.195c3.194,5.072,6.397,10.095,9.602,15.1L918.913,2094.964z
		 M908.335,2113.994c-1.873-2.944-3.748-5.869-5.615-8.835l16.193-10.195L908.335,2113.994z M2827.631,2237.701
		c-38.712,131.623-164.563,283.917-342.302,395.859c-107.807,67.897-234.955,121.21-373.558,146.292
		c-138.758,25.111-288.896,21.921-442.466-23.25c-241.912-71.15-492.115-246.361-719.172-579.123
		c9.115-8.151,19.153-16.64,29.533-24.604c222.016,326.544,465.586,497.92,700.436,566.995
		c147.514,43.386,291.693,46.459,424.924,22.347c133.386-24.138,255.912-75.544,359.913-141.044
		c169.87-106.987,289.672-250.893,325.955-374.269L2827.631,2237.701z"/>
	<path style="fill:#231916;" d="M1015.912,2151.522c-15.907,6.203-30.373,14.74-43.119,24.069
		c-39.509,28.912-62.271,64.723-62.338,64.827l-18.195,28.264l-7.893-67.08l-4.969-25.842c0.836-6.012,1.796-12.006,2.884-17.984
		c4.249-23.374,10.433-46.494,18.637-69.259l4.749-13.172l13.919,0.502c24.149,0.871,48.287,3.941,72.404,8.873
		c23.865,4.879,47.802,11.624,71.781,19.897l14.488,4.999l-0.041,0.113l33.968,28.626l-53.44,3.448
		C1043.553,2142.782,1029.219,2146.334,1015.912,2151.522 M950.153,2144.704c11.013-8.06,23.149-15.645,36.307-22.063l-2.115-0.438
		c-17.381-3.555-34.722-6.049-52.015-7.34c-5.254,16.393-9.376,32.96-12.412,49.658c-0.421,2.311-0.821,4.625-1.2,6.94
		C927.833,2162.552,938.355,2153.337,950.153,2144.704z"/>
	<path style="fill:#231916;" d="M2678.597,2159.704c65.716-76.979,109.464-254.619,112.563-267.46
		c15.949-85.097,101.737-93.553,101.986-93.577l2.262-0.251l2.386,0.322c150.502,20.477,161.952,83.58,162.759,95.674l0.053-0.004
		c5.932,72.372-38.854,105.994-38.981,106.089l-1.171,0.895l-1.077,0.604c-102.939,57.791-67.049,198.685-66.949,199.091
		l2.946,11.946l-9.615,7.622c-23.123,18.329-47.341,28.364-71.403,32.589c-23.694,4.161-47.165,2.584-69.217-2.275
		c-69.617-15.345-124.509-64.363-124.664-64.505l-14.072-12.475L2678.597,2159.704z M2828.526,1900.331
		c-0.129,0.535-41.685,176-108.644,268.662c18.43,13.572,53.184,35.757,93.506,44.644c17.377,3.83,35.826,5.081,54.372,1.824
		c15.007-2.637,30.139-8.3,44.879-18.057c-7.029-40.616-19.264-167.364,86.543-227.995c4.546-3.886,26.991-25.58,23.189-72.001
		l-0.042-0.507l0.042-1.517c0.002-0.118,2.348-40.205-127.119-58.349c-10.47,1.66-57.123,11.821-66.498,62.321L2828.526,1900.331z"
		/>
	<path style="fill-rule:evenodd;clip-rule:evenodd;fill:#B75400;" d="M1840.175,2331.525
		c5.556,124.915-122.487,112.979-240.71,75.962c33.007,17.018,65.703,31.765,98.006,43.168
		c328.974,116.145,598.949,8.709,771.781-106.991c29.85-19.984,56.802-40.211,80.661-59.577
		c12.585-10.215,24.309-20.19,35.142-29.763c-34.906,21.203-73.929,40.482-116.158,57.118
		c-46.916,18.484-97.79,33.709-151.371,44.697c-7.3,1.495-14.647,2.915-22.045,4.25c-112.55,20.35-236.312,22.061-360.135-3.57
		C1903.556,2350.235,1871.769,2341.855,1840.175,2331.525"/>
	<path style="fill-rule:evenodd;clip-rule:evenodd;fill:#B75400;" d="M2198.735,2760.104
		c53.71,348.811-792.366,138.539-792.366,138.539c61.053,34.093,125.885,63.834,193.387,88.166
		c277.929,100.182,601.24,108.764,892.607-48.334c145.321-78.353,288.416-174.325,376.26-294.204
		c82.389-112.437,116.064-246.925,56.132-409.299c-34.211,19.726-69.552,23.542-102.362,19.137c-0.646,1.88-1.313,3.768-1.993,5.656
		c-32.214,89.25-102.366,186.201-199.987,272.714c-40.54,35.926-85.819,70.055-135.084,101.082
		C2400.496,2686.992,2303.684,2731.387,2198.735,2760.104"/>
	<path style="fill-rule:evenodd;clip-rule:evenodd;fill:#F8B22F;" d="M2340.785,2630.25c-58.04,61.941-150.64,92.562-150.64,92.562
		c100.506-27.677,193.333-70.337,274.793-121.638c1.586-1.002,3.168-2.002,4.745-3.008c41.198-26.26,79.401-54.683,114.121-84.435
		c99.227-85.028,170.019-180.925,201.055-268.253c-10.524-3.366-20.579-7.378-30.001-11.701
		c-22.938-10.522-42.087-22.845-55.196-32.269c-1.382-0.993-2.702-1.957-3.939-2.893c-16.929,19.082-51.064,55.359-100.385,97.363
		c-57.322,48.82-135.155,105.37-230.325,151.635c29.816,55.632,25.793,102.724,5.614,141.369
		C2362.777,2604.014,2352.485,2617.768,2340.785,2630.25"/>
	<path style="fill-rule:evenodd;clip-rule:evenodd;fill:#F8B22F;" d="M2620.22,1994.337c-0.386-0.846-0.764-1.691-1.135-2.533
		C2619.456,1992.644,2619.833,1993.491,2620.22,1994.337 M2505.468,1946.988c-202.639,132.789-629.43-29.923-629.43-29.923
		c21.25,15.68,43.064,30.081,65.3,43.26c96.074,56.931,200.091,91.024,300.173,106.349c155.336,23.785,300.506,2.426,391.071-48.869
		c-4.454-7.311-8.342-14.754-11.728-22.079c-9.91-21.434-15.527-41.82-18.484-55.183
		C2583.96,1942.969,2549.948,1946.508,2505.468,1946.988z"/>
	<path style="fill-rule:evenodd;clip-rule:evenodd;fill:#F8B22F;" d="M2616.647,2068.855
		c-49.191,24.489-214.074,98.165-418.215,98.438c95.708,53.977,57.498,107.48-1.704,146.559
		c-13.916,9.186-28.992,17.575-43.762,24.989c-1.575,0.789-3.146,1.569-4.712,2.335c5.121-0.14,10.229-0.318,15.323-0.542
		c43.053-1.88,85.173-6.709,125.797-14.054c4.428-0.802,8.844-1.633,13.237-2.49c162.701-31.847,299.316-103.606,372.52-186.297
		c-7.629-6.336-14.654-13.048-21.048-19.808c-0.355-0.375-0.709-0.751-1.06-1.126
		C2636.351,2099.027,2624.099,2081.052,2616.647,2068.855"/>
	<path style="fill-rule:evenodd;clip-rule:evenodd;fill:#006C11;" d="M2813.388,2213.636c4.461,0.984,8.995,1.795,13.581,2.406
		C2822.384,2215.431,2817.849,2214.621,2813.388,2213.636 M2790.279,2025.731c-2.877,7.891-5.903,15.902-9.066,23.958
		c-11.71,29.788-25.371,60.159-40.738,87.063c-4.379,7.673-8.9,15.065-13.552,22.076c-1.711,2.582-3.439,5.11-5.192,7.576
		c-0.02,0.029-0.04,0.058-0.051,0.089c-0.593,0.84-1.191,1.675-1.797,2.499c0.282,0.207,0.569,0.418,0.855,0.631
		c15.463,11.333,41.611,28.161,72.412,38.51c10.786,3.621,22.143,6.452,33.813,7.973c8.2,1.069,16.553,1.491,24.973,1.086
		c0.071-0.007,0.142-0.009,0.216-0.011c20.212-1.002,40.789-6.774,60.484-19.779c-0.267-1.571-0.549-3.27-0.829-5.09
		c-5.454-35.448-11.155-116.411,35.544-177.835c0.267-0.347,0.535-0.698,0.802-1.044c-0.324,0.36-0.646,0.718-0.969,1.075
		c-39.672,43.919-69.861,64.745-92.811,70.361c-14.576,3.563-26.229,0.993-35.537-5.696c-12.241-8.793-20.424-24.707-25.853-43.146
		C2791.992,2032.667,2791.092,2029.223,2790.279,2025.731z M2999.183,1969.408c3.07-2.626,14.307-13.376,20.108-34.382
		c-18.491,18.591-37.87,39.652-58.129,63.503C2971.724,1987.794,2984.285,1977.946,2999.183,1969.408z"/>
	<path style="fill-rule:evenodd;clip-rule:evenodd;fill:#006C11;" d="M2737.28,2056.7c15.616-36.857,28.308-74.784,37.463-104.988
		c-20.421,55.558-55.885,76.833-85.484,84.395c-8.789,2.244-17.058,3.284-24.26,3.657c-3.43,2.535-6.858,4.972-10.284,7.298
		c-0.02,0.016-0.04,0.031-0.064,0.045c-2.653,1.799-5.301,3.537-7.947,5.196c10.459,16.945,30.969,45.777,60.073,66.596
		c5.958-10.291,11.661-21.203,17.087-32.462c0.004-0.009,0.007-0.016,0.011-0.024c2.346-4.868,4.636-9.795,6.878-14.77
		c1.404-3.115,2.786-6.245,4.148-9.389C2735.7,2060.406,2736.493,2058.555,2737.28,2056.7"/>
	<path style="fill-rule:evenodd;clip-rule:evenodd;fill:#006C11;" d="M2659.172,2000.947c19.792-16.174,39.416-35.388,57.425-54.699
		c-37.552,11.755-83.207-11.115-83.207-11.115C2636.927,1950.795,2644.464,1976.74,2659.172,2000.947"/>
	<path style="fill-rule:evenodd;clip-rule:evenodd;fill:#EBF855;" d="M2809.365,1968.935c0,0,87.534-82.574,157.042-80.594
		c3.241,0.093,6.443,0.369,9.595,0.846c8.653,1.306,16.929,4.13,24.611,8.82c7.936,4.839,15.231,11.672,21.647,20.879
		c0.284-2.853,0.467-5.834,0.522-8.953c0.073-3.957-0.051-8.129-0.411-12.526l-0.042-0.507l0.042-1.517
		c0.002-0.064,0.735-12.601-21.181-26.817c-4.043-2.626-8.865-5.305-14.601-7.978c-11.506-5.356-26.706-10.671-46.788-15.396
		c-8.231-1.935-17.28-3.775-27.23-5.474c-5.494-0.938-11.264-1.835-17.32-2.684c-10.47,1.66-57.123,11.821-66.498,62.321
		l-0.229,0.975C2828.475,1900.547,2821.744,1928.981,2809.365,1968.935"/>
</g>
</svg>
